
<svg version="1.0" xmlns="http://www.w3.org/2000/svg" width="258.667" height="240" viewBox="0 0 194 180" fill="#ffff">
  <path d="M132 6c0 .5.5 1 1 1 .6 0 1-.5 1-1 0-.6-.4-1-1-1-.5 0-1 .4-1 1m-7 5c0 .5.5 1 1 1 .6 0 1-.5 1-1 0-.6-.4-1-1-1-.5 0-1 .4-1 1m7.5 0c-.3.5-.1 1 .4 1 .6 0 1.1-.5 1.1-1 0-.6-.2-1-.4-1-.3 0-.8.4-1.1 1m-.5 7c0 .5.5 1 1 1 .6 0 1-.5 1-1 0-.6-.4-1-1-1-.5 0-1 .4-1 1m-7 5c0 .5.5 1 1 1 .6 0 1-.5 1-1 0-.6-.4-1-1-1-.5 0-1 .4-1 1m7.5 0c-.3.5-.1 1 .4 1 .6 0 1.1-.5 1.1-1 0-.6-.2-1-.4-1-.3 0-.8.4-1.1 1m-.5 7c0 .5.5 1 1 1 .6 0 1-.5 1-1 0-.6-.4-1-1-1-.5 0-1 .4-1 1m-7 5c0 .5.5 1 1 1 .6 0 1-.5 1-1 0-.6-.4-1-1-1-.5 0-1 .4-1 1m7.5 0c-.3.5-.1 1 .4 1 .6 0 1.1-.5 1.1-1 0-.6-.2-1-.4-1-.3 0-.8.4-1.1 1m-7.5 7c0 .5.5 1 1 1 .6 0 1-.5 1-1 0-.6-.4-1-1-1-.5 0-1 .4-1 1m-94.2 1.7c.6.2 1.8.2 2.5 0 .6-.3.1-.5-1.3-.5s-1.9.2-1.2.5M24 47c0 .5.5 1 1 1 .6 0 1-.5 1-1 0-.6-.4-1-1-1-.5 0-1 .4-1 1m73 0c0 .5.5 1 1 1 .6 0 1-.5 1-1 0-.6-.4-1-1-1-.5 0-1 .4-1 1m21 0c0 .5.5 1 1 1 .6 0 1-.5 1-1 0-.6-.4-1-1-1-.5 0-1 .4-1 1m7.5 0c-.3.5-.1 1 .4 1 .6 0 1.1-.5 1.1-1 0-.6-.2-1-.4-1-.3 0-.8.4-1.1 1m6.5 0c0 .5.5 1 1 1 .6 0 1-.5 1-1 0-.6-.4-1-1-1-.5 0-1 .4-1 1m-84 4.8c0 .7-.8 1.2-1.8 1.2-1.1 0-1.8.7-1.8 2 0 1.1.6 2 1.2 2 .7 0 1.5.8 1.7 1.7.4 1.7.5 1.7.6 0 0-.9.5-1.7 1-1.7.4 0 .7-1.2.5-2.6-.2-2.6-1.4-4.7-1.4-2.6m0 3.2c0 .5-.4 1-1 1-.5 0-1-.5-1-1 0-.6.5-1 1-1 .6 0 1 .4 1 1m69.3-.3c.9.2 2.3.2 3 0 .6-.3-.1-.5-1.8-.5-1.6 0-2.2.2-1.2.5m7.5 1c.6.2 1.8.2 2.5 0 .6-.3.1-.5-1.3-.5s-1.9.2-1.2.5m-7.5 2c.9.2 2.3.2 3 0 .6-.3-.1-.5-1.8-.5-1.6 0-2.2.2-1.2.5M53 59c0 .5.5 1 1 1 .6 0 1-.5 1-1 0-.6-.4-1-1-1-.5 0-1 .4-1 1m43 0c0 .5.5 1 1 1 .6 0 1-.5 1-1 0-.6-.4-1-1-1-.5 0-1 .4-1 1m36 0c0 .5.5 1 1 1 .6 0 1-.5 1-1 0-.6-.4-1-1-1-.5 0-1 .4-1 1m21 0c0 .5.5 1 1 1 .6 0 1-.5 1-1 0-.6-.4-1-1-1-.5 0-1 .4-1 1m-93.8 5.2c-1.5 1.5-1.6 7 0 8.6.7.7 1.9 1.2 2.8 1.1.9 0 .6-.4-.7-.9-1.8-.7-2.3-1.7-2.3-4.5 0-2.3.6-3.8 1.5-4.2 2.4-.9 3.1.6 1 2.1s-1.4 4.6 1 4.6c1.3 0 1.5-.9 1.3-3.7-.3-4-2.3-5.4-4.6-3.1m3.4 5.5c-1 1-1.9-.5-1-1.8.6-1.1.8-1.1 1.2 0 .2.7.1 1.5-.2 1.8m2.8-5.5c-.4.6-.1 1.6.7 2.2s1.5 1.8 1.7 2.6c.6 2.6 2.1 3.5 3.5 2.1 1-1 .8-1.6-1-2.8-1.3-.9-2.3-2.4-2.3-3.4 0-2.1-1.5-2.5-2.6-.7m5.6 5.9c0 1.4-1.7 1-2.3-.5q-.6-1.5.9-.9c.7.3 1.4.9 1.4 1.4m31.2-5.9c-1.5 1.5-1.6 7 0 8.6.7.7 1.9 1.2 2.8 1.1.9 0 .6-.4-.7-.9-1.8-.7-2.3-1.7-2.3-4.5 0-3.5 2.2-5.7 3.8-4 .4.4.1 1-.5 1.2-1.9.7-1.6 5.3.2 5.3.8 0 1.5-.5 1.5-1.1 0-.5-.4-.7-1-.4-.5.3-1-.1-1-1s.5-1.3 1.1-.9c.7.4.9-.2.7-1.7-.3-2.7-2.7-3.6-4.6-1.7m15 2.4c-.7.8-.8 1.4-.3 1.4s1.2.8 1.4 1.7c.4 1.7.5 1.7.6 0 0-.9.9-1.7 1.9-1.8 1.3 0 1.4-.2.2-.6-.8-.3-1.7-.9-2-1.3s-1.1-.2-1.8.6m22 .1c-.8.8-.9 1.3-.2 1.3.5 0 1 .8 1.1 1.7q0 2.1.6.3c.3-.8.9-1.7 1.3-2s.2-1-.4-1.6c-.9-.8-1.5-.7-2.4.3m-86.4 1c.6.2 1.8.2 2.5 0 .6-.3.1-.5-1.3-.5s-1.9.2-1.2.5M96 71c0 .5.5 1 1 1 .6 0 1-.5 1-1 0-.6-.4-1-1-1-.5 0-1 .4-1 1m30 0c0 .5.5 1 1 1 .6 0 1-.5 1-1 0-.6-.4-1-1-1-.5 0-1 .4-1 1m5 0c0 .5.5 1 1 1 .6 0 1-.5 1-1 0-.6-.4-1-1-1-.5 0-1 .4-1 1m31 0c0 .5.5 1 1 1 .6 0 1-.5 1-1 0-.6-.4-1-1-1-.5 0-1 .4-1 1m5 0c0 .5.5 1 1 1 .6 0 1-.5 1-1 0-.6-.4-1-1-1-.5 0-1 .4-1 1m-93.1 5c-.1.8-.1 1.9 0 2.4s-.2 1.2-.7 1.5-.6 1.5-.1 2.6c.6 1.7.8 1.7.8.2.1-.9.6-1.7 1.1-1.7.6 0 1 .8 1.1 1.7 0 1.5.2 1.5.8-.2 1-2.3.4-3.8-1-3-.5.4-.9.1-.9-.5s.6-1 1.3-.8c1.3.3 1.7-.3 1.7-2.5 0-.8-.4-.7-1 .3-.9 1.3-1.1 1.3-2 0s-1-1.3-1.1 0m6.5.3c-.3.8-.4 3.2-.2 5.3.2 3 .8 4 2.3 4.2 1.8.2 1.8.2.3-.8-2-1.2-2.5-7.4-.8-8.5 1.9-1.2 3.2.6 1.4 2-1.1.7-1.5 1.9-1.1 2.9 1.1 2.9 3.2 1.2 3.2-2.5 0-2.8-.4-3.5-2.3-3.7-1.3-.2-2.4.3-2.8 1.1m4.6 4.2c0 .8-.4 1.5-1 1.5-.5 0-1-.7-1-1.5s.5-1.5 1-1.5c.6 0 1 .7 1 1.5m17.2-4.3c-1.5 1.5-1.6 7 0 8.6.7.7 1.9 1.2 2.8 1.1.9 0 .6-.4-.7-.9-1.8-.7-2.3-1.7-2.3-4.5 0-3.5 2.2-5.7 3.8-4 .4.4.1 1-.5 1.2-1.9.7-1.6 5.3.2 5.3.8 0 1.5-.5 1.5-1.1 0-.5-.4-.7-1-.4-.5.3-1-.1-1-1s.5-1.3 1.1-.9c.7.4.9-.2.7-1.7-.3-2.7-2.7-3.6-4.6-1.7m14.2.1c-.3.8-.4 3.2-.2 5.3.2 3 .8 4 2.3 4.2 1.8.2 1.8.2.3-.8-2-1.2-2.5-7.4-.8-8.5 1.9-1.2 3.2.6 1.4 2-1.1.7-1.5 1.9-1.1 2.9 1.1 2.9 3.2 1.2 3.2-2.5 0-2.8-.4-3.5-2.3-3.7-1.3-.2-2.4.3-2.8 1.1m4.6 4.2c0 .8-.4 1.5-1 1.5-.5 0-1-.7-1-1.5s.5-1.5 1-1.5c.6 0 1 .7 1 1.5m9-3.4c0 1.5.5 1.9 1.5 1.5 1.9-.7 1.9-.2-.1 3.2-1.2 2-1.2 2.2-.1.9 1.3-1.5 1.5-1.6 2.1-.2.3.8 1.1 1.5 1.8 1.4 1 0 1-.2.1-.6-.7-.2-1.3-.9-1.3-1.4 0-.6.5-.7 1-.4.6.3 1 .2 1-.4 0-.5-.6-1.1-1.2-1.4-1-.4-1-.7 0-1.8.6-.7 1.2-1.7 1.2-2.3 0-.5-.6-.2-1.3.8-1.2 1.7-1.4 1.7-2 .2-.9-2.3-2.7-2-2.7.5m16.5.2c-.6.7-.9 2.1-.7 3.1.3 1.5.6 1.6 1.3.5.6-1 .9-1 .9-.2 0 .7.5 1.3 1.1 1.3.5 0 .7-.5.3-1.1-.3-.6 0-1.6.7-2.1 1.1-.8 1-.9-.3-.4-.9.3-1.8-.1-2-.9-.2-1-.6-1-1.3-.2m-56.5.6c0 .5-.8 1.2-1.7 1.4-1.7.4-1.7.5 0 .6.9 0 1.7.9 1.8 1.8q0 2.1.6.3c.3-.8.9-1.7 1.3-2s.2-1.1-.6-1.8-1.4-.8-1.4-.3m20.2.8c-.8.8-.9 1.3-.2 1.3.5 0 1 .8 1.1 1.7q0 2.1.6.3c.3-.8.9-1.7 1.3-2s.2-1-.4-1.6c-.9-.8-1.5-.7-2.4.3M154 78c0 .5.5 1 1 1 .6 0 1-.5 1-1 0-.6-.4-1-1-1-.5 0-1 .4-1 1m-14.7.7c.9.2 2.3.2 3 0 .6-.3-.1-.5-1.8-.5-1.6 0-2.2.2-1.2.5m-14.5 1c.6.2 1.8.2 2.5 0 .6-.3.1-.5-1.3-.5s-1.9.2-1.2.5m14.5 2c.9.2 2.3.2 3 0 .6-.3-.1-.5-1.8-.5-1.6 0-2.2.2-1.2.5M61 83c0 .5.5 1 1 1 .6 0 1-.5 1-1 0-.6-.4-1-1-1-.5 0-1 .4-1 1m35 0c0 .5.5 1 1 1 .6 0 1-.5 1-1 0-.6-.4-1-1-1-.5 0-1 .4-1 1m58 0c0 .5.5 1 1.1 1 .5 0 .7-.5.4-1-.3-.6-.8-1-1.1-1-.2 0-.4.4-.4 1m8 0c0 .5.5 1 1 1 .6 0 1-.5 1-1 0-.6-.4-1-1-1-.5 0-1 .4-1 1m5 0c0 .5.5 1 1 1 .6 0 1-.5 1-1 0-.6-.4-1-1-1-.5 0-1 .4-1 1m-71.8 5.2c-1.5 1.5-1.6 7 0 8.6.7.7 1.9 1.2 2.7 1.1 1 0 .7-.4-.6-.9-1.8-.7-2.3-1.7-2.3-4.5 0-2.3.6-3.8 1.5-4.2 2.4-.9 3.1.6 1 2.1s-1.4 4.6 1 4.6c1.3 0 1.5-.9 1.3-3.7-.3-4-2.3-5.4-4.6-3.1m3.4 5.5c-1 1-1.9-.5-1-1.8.6-1.1.8-1.1 1.2 0 .2.7.1 1.5-.2 1.8m3.6-5.5c-1.5 1.5-1.6 7 0 8.6.7.7 1.9 1.2 2.8 1.1.9 0 .6-.4-.7-.9-1.8-.7-2.3-1.7-2.3-4.5 0-3.5 2.2-5.7 3.8-4 .4.4.1 1-.5 1.2-1.9.7-1.6 5.3.2 5.3.8 0 1.5-.5 1.5-1.1 0-.5-.4-.7-1-.4-.5.3-1-.1-1-1s.5-1.3 1.1-.9c.7.4.9-.2.7-1.7-.3-2.7-2.7-3.6-4.6-1.7m7.5-.5c-.4.3-.7 1.1-.7 1.7s.4.5.9-.3q.9-1.35 2.7-.6c1.8.8 1.8.8.1 1.2-1.2.3-1.7 1.2-1.5 2.6.4 2.9 3.2 2.8 3.6-.1.5-3.6-3-6.7-5.1-4.5m4.3 4.8c0 .8-.4 1.5-1 1.5-.5 0-1-.7-1-1.5s.5-1.5 1-1.5c.6 0 1 .7 1 1.5m2.4-4.2c-.3.8-.4 3.2-.2 5.3.2 3 .8 4 2.3 4.2 1.8.2 1.8.2.3-.8-2-1.2-2.5-7.4-.8-8.5 1.9-1.2 3.2.6 1.4 2-1.1.7-1.5 1.9-1.1 2.9 1.1 2.9 3.2 1.2 3.2-2.5 0-2.8-.4-3.5-2.3-3.7-1.3-.2-2.4.3-2.8 1.1m4.6 4.2c0 .8-.4 1.5-1 1.5-.5 0-1-.7-1-1.5s.5-1.5 1-1.5c.6 0 1 .7 1 1.5m3.2-4.3c-1.5 1.5-1.6 7 0 8.6.7.7 1.9 1.2 2.8 1.1.9 0 .6-.4-.7-.9-1.8-.7-2.3-1.7-2.3-4.5 0-2.3.6-3.8 1.5-4.2 2.4-.9 3.1.6 1 2.1s-1.4 4.6 1 4.6c1.3 0 1.5-.9 1.3-3.7-.3-4-2.3-5.4-4.6-3.1m3.4 5.5c-1 1-1.9-.5-1-1.8.6-1.1.8-1.1 1.2 0 .2.7.1 1.5-.2 1.8m3.6-5.5c-1.5 1.5-1.6 7 0 8.6.7.7 1.9 1.2 2.8 1.1.9 0 .6-.4-.7-.9-1.8-.7-2.3-1.7-2.3-4.5 0-2.3.6-3.8 1.5-4.2 2.4-.9 3.1.6 1 2.1s-1.4 4.6 1 4.6c1.3 0 1.5-.9 1.3-3.7-.3-4-2.3-5.4-4.6-3.1m3.4 5.5c-1 1-1.9-.5-1-1.8.6-1.1.8-1.1 1.2 0 .2.7.1 1.5-.2 1.8M90 89c0 .5-.8 1-1.7 1-1.4 0-1.5.2-.4.9.7.5 1.1 1.3.8 1.8s.3.9 1.3.9 1.6-.4 1.3-.9-.1-1.2.5-1.6.5-1.1-.4-1.9c-.8-.7-1.4-.8-1.4-.2m-44 2.5c0 .8.5 1.5 1 1.5.6 0 1-.7 1-1.5s-.4-1.5-1-1.5c-.5 0-1 .7-1 1.5m7.3-.8c.9.2 2.3.2 3 0 .6-.3-.1-.5-1.8-.5-1.6 0-2.2.2-1.2.5m6.5 1c.6.2 1.8.2 2.5 0 .6-.3.1-.5-1.3-.5s-1.9.2-1.2.5m-6.5 2c.9.2 2.3.2 3 0 .6-.3-.1-.5-1.8-.5-1.6 0-2.2.2-1.2.5M81 95c0 .5.5 1 1 1 .6 0 1-.5 1-1 0-.6-.4-1-1-1-.5 0-1 .4-1 1m28.3 1c.2.8 1.2 1.6 2.3 1.7 1.3.2 1.5.1.4-.4-.8-.3-1.9-1.1-2.3-1.7-.6-.7-.7-.6-.4.4M77 99.8c0 .7-.8 1.2-1.7 1-1.1-.2-1.7.2-1.5 1.1.2.8-.1 1.7-.6 2s-.6 1.5-.1 2.6c.6 1.7.8 1.7.8.2.1-.9.6-1.7 1.1-1.7.6 0 1 .8 1.1 1.7 0 1.5.2 1.5.8-.2 1-2.3.4-3.8-1-3-.5.4-.9.2-.9-.4 0-.5.9-1.1 2-1.3 1.5-.2 1.7-.7 1-1.8s-1-1.1-1-.2m3.7-.2c-1.4 1.5-.8 9.2.9 9.8 2.4.9 3.1.7 1.2-.5-2-1.1-2.5-7.3-.8-8.4 1.9-1.2 3.2.6 1.4 2-1.1.7-1.5 1.9-1.1 2.9 1.1 2.9 3.2 1.2 3.2-2.5 0-2.7-.4-3.5-2-3.7-1.2-.2-2.4 0-2.8.4m4.3 4.9c0 .8-.4 1.5-1 1.5-.5 0-1-.7-1-1.5s.5-1.5 1-1.5c.6 0 1 .7 1 1.5m3.2-4.3c-1.5 1.5-1.6 7 0 8.6.7.7 1.9 1.2 2.7 1.1 1 0 .7-.4-.6-.9-1.8-.7-2.3-1.7-2.3-4.5 0-2.3.6-3.8 1.5-4.2 2.4-.9 3.1.6 1 2.1s-1.4 4.6 1 4.6c1.3 0 1.5-.9 1.3-3.7-.3-4-2.3-5.4-4.6-3.1m3.4 5.5c-1 1-1.9-.5-1-1.8.6-1.1.8-1.1 1.2 0 .2.7.1 1.5-.2 1.8m3.6-5.5c-1.5 1.5-1.6 7 0 8.6.7.7 1.9 1.2 2.7 1.1 1 0 .7-.4-.6-.9-1.8-.7-2.3-1.7-2.3-4.5 0-2.3.6-3.8 1.5-4.2 2.4-.9 3.1.6 1 2.1s-1.4 4.6 1 4.6c1.3 0 1.5-.9 1.3-3.7-.3-4-2.3-5.4-4.6-3.1m3.4 5.5c-1 1-1.9-.5-1-1.8.6-1.1.8-1.1 1.2 0 .2.7.1 1.5-.2 1.8m3.6-5.5c-1.5 1.5-1.6 7 0 8.6.7.7 1.9 1.2 2.8 1.1.9 0 .6-.4-.7-.9-1.8-.7-2.3-1.7-2.3-4.5 0-3.5 2.2-5.7 3.8-4 .4.4.1 1-.5 1.2-1.9.7-1.6 5.3.2 5.3.8 0 1.5-.5 1.5-1.1 0-.5-.4-.7-1-.4-.5.3-1-.1-1-1s.5-1.3 1.1-.9c.7.4.9-.2.7-1.7-.3-2.7-2.7-3.6-4.6-1.7m7.5-.5c-.4.3-.7 1.1-.7 1.7s.4.5.9-.3q.9-1.35 2.7-.6c1.8.8 1.8.8.1 1.2-1.2.3-1.7 1.2-1.5 2.6.4 2.9 3.2 2.8 3.6-.1.5-3.6-3-6.7-5.1-4.5m4.3 4.8c0 .8-.4 1.5-1 1.5-.5 0-1-.7-1-1.5s.5-1.5 1-1.5c.6 0 1 .7 1 1.5m2.4-4.2c-.3.8-.4 3.2-.2 5.3.2 3 .8 4 2.3 4.2 1.8.2 1.8.2.3-.8-2-1.2-2.5-7.4-.8-8.5 1.9-1.2 3.2.6 1.4 2-1.1.7-1.5 1.9-1.1 2.9 1.1 2.9 3.2 1.2 3.2-2.5 0-2.8-.4-3.5-2.3-3.7-1.3-.2-2.4.3-2.8 1.1m4.6 4.2c0 .8-.4 1.5-1 1.5-.5 0-1-.7-1-1.5s.5-1.5 1-1.5c.6 0 1 .7 1 1.5m3.2-4.3c-1.5 1.5-1.6 7 0 8.6.7.7 1.9 1.2 2.8 1.1.9 0 .6-.4-.7-.9-1.8-.7-2.3-1.7-2.3-4.5 0-2.3.6-3.8 1.5-4.2 2.4-.9 3.1.6 1 2.1s-1.4 4.6 1 4.6c1.3 0 1.5-.9 1.3-3.7-.3-4-2.3-5.4-4.6-3.1m3.4 5.5c-1 1-1.9-.5-1-1.8.6-1.1.8-1.1 1.2 0 .2.7.1 1.5-.2 1.8m3.6-5.5c-1.5 1.5-1.6 7 0 8.6.7.7 1.9 1.2 2.8 1.1.9 0 .6-.4-.7-.9-1.8-.7-2.3-1.7-2.3-4.5 0-2.3.6-3.8 1.5-4.2 2.4-.9 3.1.6 1 2.1s-1.4 4.6 1 4.6c1.3 0 1.5-.9 1.3-3.7-.3-4-2.3-5.4-4.6-3.1m3.4 5.5c-1 1-1.9-.5-1-1.8.6-1.1.8-1.1 1.2 0 .2.7.1 1.5-.2 1.8m5.4-4.3c0 1-.6 1.3-1.7 1-1.4-.5-1.5-.4-.4.4.8.6 1 1.5.5 2.3-.6 1.2-.5 1.2.8.1 1.3-1 1.7-1 2 0 .3.7.7.4 1-.8.3-1.1-.1-2.5-.9-3.2-1-1-1.3-1-1.3.2m-73.2 2.3c.6.2 1.8.2 2.5 0 .6-.3.1-.5-1.3-.5s-1.9.2-1.2.5M60 107c0 .5.5 1 1 1 .6 0 1-.5 1-1 0-.6-.4-1-1-1-.5 0-1 .4-1 1m49.4 1c.1.8 1 1.6 2.1 1.7 1.5.1 1.5 0 .3-.3-.9-.3-1.9-1.1-2.1-1.7-.2-.7-.3-.5-.3.3m43.6-1c0 .5.5 1 1 1 .6 0 1-.5 1-1 0-.6-.4-1-1-1-.5 0-1 .4-1 1m-109.6 5.2c-.4.6.1 1.7 1.1 2.5 1.5 1 1.6 1.6.7 2.5-.7.7-1.2 1.6-1.2 2.2 0 .5.7.1 1.5-1 1.3-1.7 1.4-1.7 1.5-.2 0 2.6 3 2.2 3-.3 0-1.5-.5-1.9-1.5-1.5-1.9.7-1.9.2.1-3.2 1.2-2 1.2-2.2.1-.9-1.3 1.5-1.5 1.6-2.1.2-.6-1.8-2.2-2-3.2-.3m2.9 1.2q.6 1.5-.9.9c-.7-.3-1.4-.9-1.4-1.4 0-1.4 1.7-1 2.3.5m5.9-1.2c-1.5 1.5-1.6 7 0 8.6.7.7 1.9 1.2 2.8 1.1.9 0 .6-.4-.7-.9-1.8-.7-2.3-1.7-2.3-4.5 0-2.3.6-3.8 1.5-4.2 2.4-.9 3.1.6 1 2.1s-1.4 4.6 1 4.6c1.3 0 1.5-.9 1.3-3.7-.3-4-2.3-5.4-4.6-3.1m3.4 5.5c-1 1-1.9-.5-1-1.8.6-1.1.8-1.1 1.2 0 .2.7.1 1.5-.2 1.8m3.6-5.5c-1.5 1.5-1.6 7 0 8.6.7.7 1.9 1.2 2.8 1.1.9 0 .6-.4-.7-.9-1.8-.7-2.3-1.7-2.3-4.5 0-2.3.6-3.8 1.5-4.2 2.4-.9 3.1.6 1 2.1s-1.4 4.6 1 4.6c1.3 0 1.5-.9 1.3-3.7-.3-4-2.3-5.4-4.6-3.1m3.4 5.5c-1 1-1.9-.5-1-1.8.6-1.1.8-1.1 1.2 0 .2.7.1 1.5-.2 1.8m3.6-5.5c-1.5 1.5-1.6 7 0 8.6.7.7 1.9 1.2 2.7 1.1 1 0 .7-.4-.6-.9-1.8-.7-2.3-1.7-2.3-4.5 0-3.5 2.2-5.7 3.8-4 .4.4.1 1-.5 1.2-1.9.7-1.6 5.3.2 5.3.8 0 1.5-.5 1.5-1.1 0-.5-.4-.7-1-.4-.5.3-1-.1-1-1s.5-1.3 1.1-.9c.7.4.9-.2.7-1.7-.3-2.7-2.7-3.6-4.6-1.7m7.5-.5c-.4.3-.7 1.1-.7 1.7s.4.5.9-.3q.9-1.35 2.7-.6c1.8.8 1.8.8.1 1.2-1.2.3-1.7 1.2-1.5 2.6.4 2.9 3.2 2.8 3.6-.1.5-3.6-3-6.7-5.1-4.5m4.3 4.8c0 .8-.4 1.5-1 1.5-.5 0-1-.7-1-1.5s.5-1.5 1-1.5c.6 0 1 .7 1 1.5m6-4.7c0 .7-.8 1.2-1.8 1.2-1.1 0-1.8.7-1.8 2 0 1.1.6 2 1.2 2 .7 0 1.5.8 1.7 1.7.4 1.7.5 1.7.6 0 0-.9.5-1.7 1-1.7.4 0 .7-1.2.5-2.6-.2-2.6-1.4-4.7-1.4-2.6m0 3.2c0 .5-.4 1-1 1-.5 0-1-.5-1-1 0-.6.5-1 1-1 .6 0 1 .4 1 1m4.2-2.8c-1.5 1.5-1.6 7 0 8.6.7.7 1.9 1.2 2.7 1.1 1 0 .7-.4-.6-.9-1.8-.7-2.3-1.7-2.3-4.5 0-2.3.6-3.8 1.5-4.2 2.4-.9 3.1.6 1 2.1s-1.4 4.6 1 4.6c1.3 0 1.5-.9 1.3-3.7-.3-4-2.3-5.4-4.6-3.1m3.4 5.5c-1 1-1.9-.5-1-1.8.6-1.1.8-1.1 1.2 0 .2.7.1 1.5-.2 1.8m3.6-5.5c-1.5 1.5-1.6 7 0 8.6.7.7 1.9 1.2 2.7 1.1 1 0 .7-.4-.6-.9-1.8-.7-2.3-1.7-2.3-4.5 0-2.3.6-3.8 1.5-4.2 2.4-.9 3.1.6 1 2.1s-1.4 4.6 1 4.6c1.3 0 1.5-.9 1.3-3.7-.3-4-2.3-5.4-4.6-3.1m3.4 5.5c-1 1-1.9-.5-1-1.8.6-1.1.8-1.1 1.2 0 .2.7.1 1.5-.2 1.8m4.1-5.3c-.4 1-.1 1.6.8 1.6.8 0 1.5.5 1.5 1.1s-.7.9-1.5.6c-1.9-.8-2.4.3-1.4 2.8.6 1.7.8 1.7.8.2.1-1.9 2.1-2.4 2.1-.5 0 .9.3.9.9-.1.5-.8.7-2 .4-2.8-.3-.7 0-1.3.6-1.3s.8-.7.4-1.6c-.5-1.3-.7-1.3-1.4-.2-.8 1.1-1 1.1-1.8 0-.7-1.1-.9-1.1-1.4.2m7-.7c-.4.3-.7 1.1-.7 1.7s.4.5.9-.3q.9-1.35 2.7-.6c1.8.8 1.8.8.1 1.2-1.2.3-1.7 1.2-1.5 2.6.4 2.9 3.2 2.8 3.6-.1.5-3.6-3-6.7-5.1-4.5m4.3 4.8c0 .8-.4 1.5-1 1.5-.5 0-1-.7-1-1.5s.5-1.5 1-1.5c.6 0 1 .7 1 1.5m10.7-4.1c-.4 1-.1 1.6.8 1.6.8 0 1.5.5 1.5 1.1s-.7.9-1.5.6c-1.9-.8-2.4.3-1.4 2.8.5 1.5.8 1.6.8.4.1-2.4 7.8-2.5 8.3-.1.3 1.4.5 1.3 1-.6.4-1.5.2-2.2-.8-2.2-.8 0-1.4-.5-1.4-1.1s.7-.9 1.5-.6c1.9.8 2.6-.5 1.4-2.3-.5-.8-.9-1-.9-.4 0 1.4-7.2 1.7-8.1.3-.4-.7-.8-.5-1.2.5m6.3 2.6c0 .5-.7 1-1.5 1s-1.5-.5-1.5-1c0-.6.7-1 1.5-1s1.5.4 1.5 1m38-1c0 .5.5 1 1 1 .6 0 1-.5 1-1 0-.6-.4-1-1-1-.5 0-1 .4-1 1m-51.7.7c.9.2 2.3.2 3 0 .6-.3-.1-.5-1.8-.5-1.6 0-2.2.2-1.2.5m-78.5 1c.6.2 1.8.2 2.5 0 .6-.3.1-.5-1.3-.5s-1.9.2-1.2.5m78.5 2c.9.2 2.3.2 3 0 .6-.3-.1-.5-1.8-.5-1.6 0-2.2.2-1.2.5M25 119c0 .5.5 1 1 1 .6 0 1-.5 1-1 0-.6-.4-1-1-1-.5 0-1 .4-1 1m48.4 1c.1.8 1 1.6 2.1 1.7 1.5.1 1.5 0 .3-.3-.9-.3-1.9-1.1-2.1-1.7-.2-.7-.3-.5-.3.3m80.6-1c0 .5.5 1 1 1 .6 0 1-.5 1-1 0-.6-.4-1-1-1-.5 0-1 .4-1 1m7 0c0 .5.5 1 1 1 .6 0 1-.5 1-1 0-.6-.4-1-1-1-.5 0-1 .4-1 1m8.5 0c-.3.5-.1 1 .4 1 .6 0 1.1-.5 1.1-1 0-.6-.2-1-.4-1-.3 0-.8.4-1.1 1m-60.2 1c.2.8 1.2 1.6 2.3 1.7 1.3.2 1.5.1.4-.4-.8-.3-1.9-1.1-2.3-1.7-.6-.7-.7-.6-.4.4m-93.1 4.2c-1.5 1.5-1.6 7 0 8.6.7.7 1.9 1.2 2.8 1.1.9 0 .6-.4-.7-.9-1.8-.7-2.3-1.7-2.3-4.5 0-2.3.6-3.8 1.5-4.2 2.4-.9 3.1.6 1 2.1s-1.4 4.6 1 4.6c1.3 0 1.5-.9 1.3-3.7-.3-4-2.3-5.4-4.6-3.1m3.4 5.5c-1 1-1.9-.5-1-1.8.6-1.1.8-1.1 1.2 0 .2.7.1 1.5-.2 1.8m3.6-5.5c-1.5 1.5-1.6 7 0 8.6.7.7 1.9 1.2 2.8 1.1.9 0 .6-.4-.7-.9-1.8-.7-2.3-1.7-2.3-4.5 0-2.3.6-3.8 1.5-4.2 2.4-.9 3.1.6 1 2.1s-1.4 4.6 1 4.6c1.3 0 1.5-.9 1.3-3.7-.3-4-2.3-5.4-4.6-3.1m3.4 5.5c-1 1-1.9-.5-1-1.8.6-1.1.8-1.1 1.2 0 .2.7.1 1.5-.2 1.8m53.8-5.4c-.3.8-.4 3.2-.2 5.3.2 3 .8 4 2.3 4.2 1.8.2 1.8.2.3-.8-2-1.2-2.5-7.4-.8-8.5 1.9-1.2 3.2.6 1.4 2-1.1.7-1.5 1.9-1.1 2.9 1.1 2.9 3.2 1.2 3.2-2.5 0-2.8-.4-3.5-2.3-3.7-1.3-.2-2.4.3-2.8 1.1m4.6 4.2c0 .8-.4 1.5-1 1.5-.5 0-1-.7-1-1.5s.5-1.5 1-1.5c.6 0 1 .7 1 1.5m24.9-4.5c-.1.8-.1 1.9 0 2.4s-.2 1.2-.7 1.5-.6 1.5-.1 2.6c.6 1.7.8 1.7.8.2.1-.9.6-1.7 1.1-1.7.6 0 1 .8 1.1 1.7 0 1.5.2 1.5.8-.2 1-2.3.4-3.8-1-3-.5.4-.9.1-.9-.4 0-.6.9-1.1 2-1.1 1.4 0 1.8-.5 1.3-1.6-.5-1.3-.7-1.3-1.4-.2s-1.1 1-1.9-.2c-.9-1.3-1-1.3-1.1 0m-78.7 2.7c-.8.8-.9 1.3-.2 1.3.5 0 1 .8 1.1 1.7q0 2.1.6.3c.3-.8.9-1.7 1.3-2s.2-1-.4-1.6c-.9-.8-1.5-.7-2.4.3m86-.1c-.7.8-.8 1.4-.3 1.4s1.2.8 1.4 1.7c.4 1.7.5 1.7.6 0 0-.9.9-1.7 1.9-1.8 1.3 0 1.4-.2.2-.6-.8-.3-1.7-.9-2-1.3s-1.1-.2-1.8.6m15.8-.7c0 .5-.8 1.2-1.7 1.4-1.7.4-1.7.5 0 .6.9 0 1.7.9 1.8 1.8q0 2.1.6.3c.3-.8.9-1.7 1.3-2s.2-1.1-.6-1.8-1.4-.8-1.4-.3m6.3.8c.9.2 2.3.2 3 0 .6-.3-.1-.5-1.8-.5-1.6 0-2.2.2-1.2.5m0 3c.9.2 2.3.2 3 0 .6-.3-.1-.5-1.8-.5-1.6 0-2.2.2-1.2.5M10 131c0 .5.5 1 1 1 .6 0 1-.5 1-1 0-.6-.4-1-1-1-.5 0-1 .4-1 1m35 0c0 .5.5 1 1 1 .6 0 1-.5 1-1 0-.6-.4-1-1-1-.5 0-1 .4-1 1m44 0c0 .5.5 1 1 1 .6 0 1-.5 1-1 0-.6-.4-1-1-1-.5 0-1 .4-1 1m36 0c0 .5.5 1 1 1 .6 0 1-.5 1-1 0-.6-.4-1-1-1-.5 0-1 .4-1 1m-15.1 5c-.1.8-.1 1.9 0 2.4s-.2 1.2-.7 1.5-.6 1.5-.1 2.6c.6 1.7.8 1.7.8.2.1-.9.6-1.7 1.1-1.7.6 0 1 .8 1.1 1.7 0 1.5.2 1.5.8-.2 1-2.3.4-3.8-1-3-.5.4-.9.1-.9-.5s.6-1 1.3-.8c1.3.3 1.7-.3 1.7-2.5 0-.8-.4-.7-1 .3-.9 1.3-1.1 1.3-2 0s-1-1.3-1.1 0m7.3 1.6c-.9 1-.9 1.4-.1 1.4.6 0 .9.6.6 1.3s.3 1.3 1.3 1.3 1.6-.4 1.3-.9.1-1.3.8-1.8c1.1-.7 1.1-.9-.3-.9-.9 0-1.8-.4-2-.9-.1-.5-.9-.3-1.6.5m14.8 1.9c0 .9.5 1.5 1.1 1.3s1.1-.8 1.1-1.3-.5-1.1-1.1-1.3-1.1.4-1.1 1.3m7.3-.8c.9.2 2.3.2 3 0 .6-.3-.1-.5-1.8-.5-1.6 0-2.2.2-1.2.5m0 3c.9.2 2.3.2 3 0 .6-.3-.1-.5-1.8-.5-1.6 0-2.2.2-1.2.5M61 143c0 .5.5 1 1 1 .6 0 1-.5 1-1 0-.6-.4-1-1-1-.5 0-1 .4-1 1m59 4.8c0 .7-.8 1.2-1.8 1.2-1.1 0-1.8.7-1.8 2 0 1.1.6 2 1.2 2 .7 0 1.5.8 1.7 1.7.4 1.7.5 1.7.6 0 0-.9.5-1.7 1-1.7.4 0 .7-1.2.5-2.6-.2-2.6-1.4-4.7-1.4-2.6m0 3.2c0 .5-.4 1-1 1-.5 0-1-.5-1-1 0-.6.5-1 1-1 .6 0 1 .4 1 1m-60-1c0 .5.5 1 1 1 .6 0 1-.5 1-1 0-.6-.4-1-1-1-.5 0-1 .4-1 1m87.3.7c.9.2 2.5.2 3.5 0 .9-.3.1-.5-1.8-.5s-2.7.2-1.7.5m0 3c.9.2 2.5.2 3.5 0 .9-.3.1-.5-1.8-.5s-2.7.2-1.7.5M60.5 155c-.3.5-.1 1 .4 1 .6 0 1.1-.5 1.1-1 0-.6-.2-1-.4-1-.3 0-.8.4-1.1 1m64.5 0c0 .5.5 1 1 1 .6 0 1-.5 1-1 0-.6-.4-1-1-1-.5 0-1 .4-1 1m-7.8 7.6c-.7.8-.8 1.4-.3 1.4s1.2.8 1.4 1.7c.4 1.7.5 1.7.6 0 0-.9.9-1.7 1.9-1.8 1.3 0 1.4-.2.2-.6-.8-.3-1.7-.9-2-1.3s-1.1-.2-1.8.6m.8 11.4c0 .5.5 1 1 1 .6 0 1-.5 1-1 0-.6-.4-1-1-1-.5 0-1 .4-1 1m0 5c0 .5.5 1 1.1 1 .5 0 .7-.5.4-1-.3-.6-.8-1-1.1-1-.2 0-.4.4-.4 1m7 0c0 .5.5 1 1 1 .6 0 1-.5 1-1 0-.6-.4-1-1-1-.5 0-1 .4-1 1"/>
</svg>

